<?xml version="1.0" encoding="UTF-8" standalone="no"?>
<svg
   xmlns:dc="http://purl.org/dc/elements/1.1/"
   xmlns:cc="http://creativecommons.org/ns#"
   xmlns:rdf="http://www.w3.org/1999/02/22-rdf-syntax-ns#"
   xmlns:svg="http://www.w3.org/2000/svg"
   xmlns="http://www.w3.org/2000/svg"
   xmlns:xlink="http://www.w3.org/1999/xlink"
   xmlns:sodipodi="http://sodipodi.sourceforge.net/DTD/sodipodi-0.dtd"
   xmlns:inkscape="http://www.inkscape.org/namespaces/inkscape"
   version="1.1"
   x="0px"
   y="0px"
   width="81.682205"
   height="81.817795"
   viewBox="0 0 81.682205 81.817795"
   xml:space="preserve"
   id="svg2"
   inkscape:version="0.48.3.1 r9886"
   sodipodi:docname="noun_project_18931.svg"
   inkscape:export-filename="/home/dawi/Images/photo_button.png"
   inkscape:export-xdpi="55.09"
   inkscape:export-ydpi="55.09"><metadata
   id="metadata12"><rdf:RDF><cc:Work
       rdf:about=""><dc:format>image/svg+xml</dc:format><dc:type
         rdf:resource="http://purl.org/dc/dcmitype/StillImage" /><dc:title></dc:title></cc:Work></rdf:RDF></metadata><defs
   id="defs10"><linearGradient
     id="linearGradient3775"><stop
       style="stop-color:#afafaf;stop-opacity:1;"
       offset="0"
       id="stop3777" /><stop
       style="stop-color:#080808;stop-opacity:1;"
       offset="1"
       id="stop3779" /></linearGradient><linearGradient
     id="linearGradient3763"><stop
       style="stop-color:#333333;stop-opacity:1;"
       offset="0"
       id="stop3765" /><stop
       style="stop-color:#4e4e4e;stop-opacity:1;"
       offset="1"
       id="stop3767" /></linearGradient><linearGradient
     inkscape:collect="always"
     xlink:href="#linearGradient3763"
     id="linearGradient3773"
     gradientUnits="userSpaceOnUse"
     x1="43.75"
     y1="95"
     x2="43.75"
     y2="4.9999995"
     gradientTransform="matrix(0.88888889,0,0,0.88888889,6.1111112,5.555556)" /><linearGradient
     inkscape:collect="always"
     xlink:href="#linearGradient3763-8"
     id="linearGradient3773-9"
     gradientUnits="userSpaceOnUse"
     x1="43.75"
     y1="95"
     x2="43.75"
     y2="4.9999995"
     gradientTransform="matrix(0.88888889,0,0,0.88888889,5.111111,4.284369)" /><linearGradient
     id="linearGradient3763-8"><stop
       style="stop-color:#333333;stop-opacity:1;"
       offset="0"
       id="stop3765-5" /><stop
       style="stop-color:#4e4e4e;stop-opacity:1;"
       offset="1"
       id="stop3767-2" /></linearGradient><linearGradient
     inkscape:collect="always"
     xlink:href="#linearGradient3763-8-8"
     id="linearGradient3773-9-3"
     gradientUnits="userSpaceOnUse"
     x1="50.142479"
     y1="4.6234112"
     x2="50.142479"
     y2="94.623413"
     gradientTransform="matrix(0.88888889,0,0,0.88888889,-3.3422765,-3.156307)" /><linearGradient
     id="linearGradient3763-8-8"><stop
       style="stop-color:#333333;stop-opacity:1;"
       offset="0"
       id="stop3765-5-8" /><stop
       style="stop-color:#4e4e4e;stop-opacity:1;"
       offset="1"
       id="stop3767-2-7" /></linearGradient></defs><sodipodi:namedview
   pagecolor="#ffffff"
   bordercolor="#666666"
   borderopacity="1"
   objecttolerance="10"
   gridtolerance="10"
   guidetolerance="10"
   inkscape:pageopacity="0"
   inkscape:pageshadow="2"
   inkscape:window-width="1920"
   inkscape:window-height="1060"
   id="namedview8"
   showgrid="true"
   inkscape:zoom="9.44"
   inkscape:cx="41.684569"
   inkscape:cy="46.050449"
   inkscape:window-x="-2"
   inkscape:window-y="-3"
   inkscape:window-maximized="1"
   inkscape:current-layer="layer3"
   fit-margin-top="0"
   fit-margin-left="0"
   fit-margin-right="0"
   fit-margin-bottom="0"><inkscape:grid
     type="xygrid"
     id="grid2989"
     empspacing="5"
     visible="true"
     enabled="true"
     snapvisiblegridlinesonly="true"
     originx="-8.771184px"
     originy="-10.135597px" /></sodipodi:namedview>


<g
   inkscape:groupmode="layer"
   id="layer2"
   inkscape:label="unpressed"
   transform="translate(-8.771184,-8.04661)"
   style="display:none"><path
     style="fill:#ffffff;fill-opacity:1;stroke:none"
     d="m 8.771184,12.546609 c 0,0 0,-4.499999 4.499998,-4.499999 l 71.999998,0 c 0,0 4.5,0 4.5,4.499999 l 0,72 c 0,0 0,4.500004 -4.5,4.500004 l -71.999998,0 c 0,0 -4.499998,0 -4.499998,-4.500004 z"
     id="path2991-3"
     inkscape:connector-curvature="0" /><g
     transform="translate(-1,-1.271187)"
     id="Captions"
     style="fill:none" /><path
     style="fill:#000000;fill-opacity:1;stroke:none"
     d="m 9.453388,13.364405 c 0,0 0,-4.5 4.5,-4.5 l 72.000002,0 c 0,0 4.5,0 4.5,4.5 l 0,72 c 0,0 0,4.499998 -4.5,4.499998 l -72.000002,0 c 0,0 -4.5,0 -4.5,-4.499998 z"
     id="path2991"
     inkscape:connector-curvature="0" /><path
     inkscape:connector-curvature="0"
     id="path3771"
     d="m 9.555556,13.173257 c 0,0 0,-4.444444 4.444444,-4.444444 l 71.11111,0 c 0,0 4.44445,0 4.44445,4.444444 l 0,71.111112 c 0,0 0,4.444444 -4.44445,4.444444 l -71.11111,0 c 0,0 -4.444444,0 -4.444444,-4.444444 z"
     style="fill:url(#linearGradient3773-9);fill-opacity:1;stroke:none" /><g
     id="Your_Icon"
     transform="matrix(0.625,0,0,0.625,17.75,16.25)"
     style="fill:#c3ff68;fill-opacity:1"><path
       d="m 37.82,54.16 c 0,6.719 5.461,12.18 12.18,12.18 6.719,0 12.18,-5.461 12.18,-12.18 0,-6.719 -5.461,-12.18 -12.18,-12.18 -6.719,0 -12.18,5.461 -12.18,12.18 z M 16,82 h 68 c 5.26,0 6,-0.74 6,-6 V 30 c 0,-4.924 -0.76,-6 -6,-6 H 64 c 0,-5.141 -0.84,-6 -6,-6 H 42 c -5.1,0 -6,0.961 -6,6 H 16 c -5.16,0 -6,1.385 -6,6 v 46 c 0,5.199 0.76,6 6,6 z M 31.281,54.16 C 31.281,43.82 39.66,35.441 50,35.441 60.34,35.441 68.719,43.82 68.719,54.16 68.719,64.5 60.34,72.879 50,72.879 39.66,72.879 31.281,64.5 31.281,54.16 z"
       id="path6"
       inkscape:connector-curvature="0"
       style="fill:#c3ff68;fill-opacity:1;fill-rule:evenodd" /></g></g><g
   inkscape:groupmode="layer"
   id="layer3"
   inkscape:label="pressed"><path
     style="fill:#000000;fill-opacity:1;stroke:none"
     d="m 0.31779651,4.576272 c 0,0 0,-4.49999895 4.49999799,-4.49999895 l 71.9999975,0 c 0,0 4.5,0 4.5,4.49999895 l 0,72.000002 c 0,0 0,4.5 -4.5,4.5 l -71.9999975,0 c 0,0 -4.49999799,0 -4.49999799,-4.5 z"
     id="path2991-3-9"
     inkscape:connector-curvature="0" /><g
     transform="translate(-9.4533875,-9.241524)"
     id="Captions-9"
     style="fill:none" /><path
     style="fill:#000000;fill-opacity:1;stroke:none"
     d="m 1.0000005,5.394068 c 0,0 0,-4.5 4.5,-4.5 l 72.0000015,0 c 0,0 4.5,0 4.5,4.5 l 0,71.999996 c 0,0 0,4.5 -4.5,4.5 l -72.0000015,0 c 0,0 -4.5,0 -4.5,-4.5 z"
     id="path2991-8"
     inkscape:connector-curvature="0" /><path
     inkscape:connector-curvature="0"
     id="path3771-4"
     d="m 1.1021685,5.732581 c 0,0 0,-4.444444 4.444444,-4.444444 l 71.1111095,0 c 0,0 4.44445,0 4.44445,4.444444 l 0,71.111113 c 0,0 0,4.44444 -4.44445,4.44444 l -71.1111095,0 c 0,0 -4.444444,0 -4.444444,-4.44444 z"
     style="fill:url(#linearGradient3773-9-3);fill-opacity:1;stroke:none" /><g
     id="Your_Icon-1"
     transform="matrix(0.625,0,0,0.625,9.2966125,8.279663)"
     style="fill:#bbff55;fill-opacity:1"><path
       d="m 37.82,54.16 c 0,6.719 5.461,12.18 12.18,12.18 6.719,0 12.18,-5.461 12.18,-12.18 0,-6.719 -5.461,-12.18 -12.18,-12.18 -6.719,0 -12.18,5.461 -12.18,12.18 z M 16,82 h 68 c 5.26,0 6,-0.74 6,-6 V 30 c 0,-4.924 -0.76,-6 -6,-6 H 64 c 0,-5.141 -0.84,-6 -6,-6 H 42 c -5.1,0 -6,0.961 -6,6 H 16 c -5.16,0 -6,1.385 -6,6 v 46 c 0,5.199 0.76,6 6,6 z M 31.281,54.16 C 31.281,43.82 39.66,35.441 50,35.441 60.34,35.441 68.719,43.82 68.719,54.16 68.719,64.5 60.34,72.879 50,72.879 39.66,72.879 31.281,64.5 31.281,54.16 z"
       id="path6-4"
       inkscape:connector-curvature="0"
       style="fill:#bbff55;fill-opacity:1;fill-rule:evenodd" /></g></g></svg>